<?xml version="1.0" encoding="UTF-8"?>
<svg id="Layer_1" xmlns="http://www.w3.org/2000/svg" xmlns:svg="http://www.w3.org/2000/svg" xmlns:rdf="http://www.w3.org/1999/02/22-rdf-syntax-ns#" xmlns:inkscape="http://www.inkscape.org/namespaces/inkscape" xmlns:dc="http://purl.org/dc/elements/1.1/" xmlns:cc="http://creativecommons.org/ns#" version="1.1" viewBox="0 0 1699.1 861.2">
  <!-- Generator: Adobe Illustrator 30.0.0, SVG Export Plug-In . SVG Version: 2.1.1 Build 123)  -->
  <defs>
    <style>
      .st0, .st1 {
        fill: none;
        stroke: #231f20;
        stroke-linecap: round;
        stroke-linejoin: round;
      }

      .st1 {
        stroke-width: 0px;
      }
    </style>
  </defs>
  <path class="st1" d="M2906,1010.9"/>
  <path class="st0" d="M1165,691"/>
  <path class="st0" d="M19.6,717.5c0,.3,0,.5.2.5h1151.6c.1,0,.2-.2.2-.5v-26"/>
  <path class="st0" d="M1171.6,34.5c0-.3,0-.5-.2-.5H19.8c-.1,0-.2.2-.2.5v14.7"/>
  <line class="st1" x1="2906" y1="1015.8" x2="2906" y2="1009.1"/>
  <line class="st0" x1="19.6" y1="49.1" x2="19.6" y2="717.5"/>
  <line class="st0" x1="1171.6" y1="34.5" x2="1171.6" y2="691.5"/>
  <path class="st0" d="M1093.8,619"/>
  <path class="st0" d="M91.6,639.9c0,.2,0,.4.2.4h1007.6c.1,0,.2-.2.2-.4v-20.6"/>
  <path class="st0" d="M1099.6,100.7c0-.2,0-.4-.2-.4H91.7c-.1,0-.2.2-.2.4v11.6"/>
  <line class="st0" x1="91.6" y1="112.3" x2="91.6" y2="639.9"/>
  <line class="st0" x1="1099.6" y1="100.7" x2="1099.6" y2="619.4"/>
</svg>