<?xml version="1.0" encoding="UTF-8"?>
<svg id="Layer_1" xmlns="http://www.w3.org/2000/svg" xmlns:svg="http://www.w3.org/2000/svg" xmlns:rdf="http://www.w3.org/1999/02/22-rdf-syntax-ns#" xmlns:inkscape="http://www.inkscape.org/namespaces/inkscape" xmlns:dc="http://purl.org/dc/elements/1.1/" xmlns:cc="http://creativecommons.org/ns#" version="1.1" viewBox="0 0 1699.1 861.2">
  <!-- Generator: Adobe Illustrator 30.0.0, SVG Export Plug-In . SVG Version: 2.1.1 Build 123)  -->
  <defs>
    <style>
      .st0 {
        stroke-miterlimit: 10;
      }

      .st0, .st1, .st2 {
        fill: none;
        stroke: #231f20;
      }

      .st1, .st2 {
        stroke-linecap: round;
        stroke-linejoin: round;
      }

      .st2 {
        stroke-width: 0px;
      }
    </style>
  </defs>
  <path class="st1" d="M34.7,534.1h-14.8c-.2,0-.3.1-.3.3v275"/>
  <path class="st1" d="M34.7,534.1"/>
  <path class="st1" d="M955.6,753.5v-20.7c0-.1,0-.2-.2-.3l-545.2-198.4s0,0,0,0h-17.7c-.3,0,0,.3,0,0"/>
  <path class="st1" d="M19.6,816v1.8c0,.2.1.3.3.3h935.4c.2,0,.3-.1.3-.3v-12.7c0-.3-.3,0,0,0"/>
  <path class="st2" d="M2906,1010.9"/>
  <path class="st1" d="M1171.6,446.6v-13c0-.2,0-.3-.2-.3H19.8c-.1,0-.2.1-.2.3v13c0,.2,0,.3.2.3"/>
  <path class="st1" d="M19.6,497.6v13c0,.2,0,.3.2.3h1151.6c.1,0,.2-.1.2-.3v-13"/>
  <path class="st1" d="M1165,402.6"/>
  <path class="st1" d="M19.6,418c0,.2,0,.3.2.3h1151.6c.1,0,.2-.1.2-.3v-15.1"/>
  <path class="st1" d="M1171.6,22.1c0-.2,0-.3-.2-.3H19.8c-.1,0-.2.1-.2.3v8.5"/>
  <line class="st2" x1="2906" y1="1015.8" x2="2906" y2="1009.1"/>
  <line class="st1" x1="19.6" y1="809.3" x2="19.6" y2="816"/>
  <line class="st1" x1="34.7" y1="534.1" x2="392.4" y2="534.1"/>
  <line class="st1" x1="955.6" y1="753.5" x2="955.6" y2="805.1"/>
  <line class="st1" x1="19.8" y1="446.8" x2="19.6" y2="497.6"/>
  <line class="st1" x1="19.6" y1="30.6" x2="19.6" y2="418"/>
  <line class="st1" x1="1171.6" y1="22.1" x2="1171.6" y2="402.9"/>
  <line class="st1" x1="1171.6" y1="446.6" x2="1171.6" y2="497.6"/>
  <circle class="st1" cx="1004.3" cy="472.2" r="18"/>
  <rect class="st0" x="73.6" y="344.7" width="1044" height="14.2"/>
  <circle class="st1" cx="419.3" cy="608.9" r="27"/>
  <path class="st1" d="M1594.8,809.3h14.8c.2,0,.3-.1.3-.3v-275"/>
  <path class="st1" d="M1594.8,809.3"/>
  <path class="st1" d="M673.9,589.9v20.7c0,.1,0,.2.2.3l545.2,198.4s0,0,0,0h17.7c.3,0,0-.3,0,0"/>
  <path class="st1" d="M1609.9,527.4v-1.8c0-.2-.1-.3-.3-.3h-935.4c-.2,0-.3.1-.3.3v12.7c0,.3.3,0,0,0"/>
  <line class="st1" x1="1609.9" y1="534.1" x2="1609.9" y2="527.4"/>
  <line class="st1" x1="1594.8" y1="809.3" x2="1237.1" y2="809.3"/>
  <line class="st1" x1="673.9" y1="589.9" x2="673.9" y2="538.3"/>
  <circle class="st1" cx="1210.2" cy="734.5" r="27"/>
</svg>